# xmcd CD database file
#
# Track frame offsets:
#	150
#	60807
#	86944
#	99771
#	123981
#	145561
#
# Disc length: 2466 seconds
#
# Revision: 0
# Processed by: cddbd v1.5.2PL0 Copyright (c) Steve Scherf et al.
# Submitted via: CDex 1.51
#
DISCID=3f09a006
DTITLE=Bengt frippe Nordström - Meaningless
DYEAR=2003
DGENRE=Jazz
TTITLE0=Woofin and tweetin
TTITLE1=´Half nelson
TTITLE2=Drums
TTITLE3=Rue chaptal
TTITLE4=Woofin and tweetin
TTITLE5=Meaningless
EXTD=YEAR: 2003
EXTT0=
EXTT1=
EXTT2=
EXTT3=
EXTT4=
EXTT5=
PLAYORDER=
